<svg xmlns="http://www.w3.org/2000/svg" width="110.193" height="110.193" viewBox="0 0 110.193 110.193">
  <g id="Group_9" data-name="Group 9" transform="translate(-254 -1128)">
    <g id="Ellipse_2" data-name="Ellipse 2" transform="translate(254 1128)" fill="none" stroke="#fefefe" stroke-width="5">
      <circle cx="55.096" cy="55.096" r="55.096" stroke="none"/>
      <circle cx="55.096" cy="55.096" r="52.596" fill="none"/>
    </g>
    <path id="dollar-sign-solid" d="M28.656,31.935,13.878,27.612A4.036,4.036,0,0,1,15.014,19.7h9.072a8.352,8.352,0,0,1,4.679,1.437,2.133,2.133,0,0,0,2.668-.274l4.762-4.652a2.218,2.218,0,0,0-.246-3.352,19.348,19.348,0,0,0-11.836-4.1V2.189A2.2,2.2,0,0,0,21.924,0H17.545a2.2,2.2,0,0,0-2.189,2.189V8.757h-.342A14.992,14.992,0,0,0,.1,25.121C.675,31.429,5.491,36.56,11.566,38.339l14.025,4.1a4.036,4.036,0,0,1-1.136,7.909H15.383A8.352,8.352,0,0,1,10.7,48.916a2.133,2.133,0,0,0-2.668.274L3.274,53.841a2.218,2.218,0,0,0,.246,3.352,19.348,19.348,0,0,0,11.836,4.1v6.568a2.2,2.2,0,0,0,2.189,2.189h4.378a2.2,2.2,0,0,0,2.189-2.189v-6.6c6.376-.123,12.355-3.913,14.463-9.947a15.025,15.025,0,0,0-9.92-19.388Z" transform="translate(289.369 1148.069)" fill="#fefefe" stroke="#fefefe" stroke-width="1"/>
  </g>
</svg>
